<?xml version="1.0" encoding="UTF-8" standalone="no"?><!DOCTYPE svg PUBLIC "-//W3C//DTD SVG 1.1//EN" "http://www.w3.org/Graphics/SVG/1.1/DTD/svg11.dtd"><svg width="100%" height="100%" viewBox="0 0 600 164" version="1.1" xmlns="http://www.w3.org/2000/svg" xmlns:xlink="http://www.w3.org/1999/xlink" xml:space="preserve" xmlns:serif="http://www.serif.com/" style="fill-rule:evenodd;clip-rule:evenodd;"><g><g><g><g id="classId-Commit-2"><rect x="7.855" y="7.855" width="267.599" height="148.166" style="fill:#ececff;stroke:#9370db;stroke-width:0.82px;"/><path d="M7.855,30.857l267.599,-0" style="fill:none;fill-rule:nonzero;stroke:#9370db;stroke-width:0.82px;"/><path d="M7.855,149.29l267.599,-0" style="fill:none;fill-rule:nonzero;stroke:#9370db;stroke-width:0.82px;"/></g><g id="classId-Merge_Commit-3"><rect x="324.546" y="7.855" width="267.599" height="148.166" style="fill:#ececff;stroke:#9370db;stroke-width:0.82px;"/><path d="M324.546,30.857l267.599,-0" style="fill:none;fill-rule:nonzero;stroke:#9370db;stroke-width:0.82px;"/><path d="M324.546,149.29l267.599,-0" style="fill:none;fill-rule:nonzero;stroke:#9370db;stroke-width:0.82px;"/></g></g></g><g transform="matrix(14.7277,0,0,14.7277,512.039,23.7125)"></g><text x="404.026px" y="23.712px" style="font-family:'Poppins-Regular', 'Poppins';font-size:14.728px;">Merge commit</text><g transform="matrix(14.7277,0,0,14.7277,164.328,23.7125)"></g><text x="104.209px" y="23.712px" style="font-family:'Poppins-Regular', 'Poppins';font-size:14.728px;">Commit</text><g transform="matrix(0.996585,0,0,0.996585,313.531,-110.906)"><text x="22.61px" y="169.955px" style="font-family:'Poppins-Regular', 'Poppins';font-size:13.546px;">SHA</text><text x="22.61px" y="184.856px" style="font-family:'Poppins-Regular', 'Poppins';font-size:13.546px;">Tree | SHA</text><text x="22.61px" y="199.757px" style="font-family:'Poppins-Regular', 'Poppins';font-size:13.546px;">Commit | Message</text><text x="22.61px" y="214.658px" style="font-family:'Poppins-Regular', 'Poppins';font-size:13.546px;">Commit | Parent 1, Parent 2</text><text x="22.61px" y="229.559px" style="font-family:'Poppins-Regular', 'Poppins';font-size:13.546px;">Author | Name, E-Mail, Timestamp</text><g transform="matrix(13.5463,0,0,13.5463,266.321,244.46)"></g><text x="22.61px" y="244.46px" style="font-family:'Poppins-Regular', 'Poppins';font-size:13.546px;">Comitter | Name, E-Mail, Timestamp</text></g><g transform="matrix(0.996585,0,0,0.996585,-6.25694,-111.337)"><text x="22.61px" y="169.955px" style="font-family:'Poppins-Regular', 'Poppins';font-size:13.546px;">SHA</text><text x="22.61px" y="184.856px" style="font-family:'Poppins-Regular', 'Poppins';font-size:13.546px;">Tree | SHA</text><text x="22.61px" y="199.757px" style="font-family:'Poppins-Regular', 'Poppins';font-size:13.546px;">Commit | Message</text><text x="22.61px" y="214.658px" style="font-family:'Poppins-Regular', 'Poppins';font-size:13.546px;">Commit | Parent</text><text x="22.61px" y="229.559px" style="font-family:'Poppins-Regular', 'Poppins';font-size:13.546px;">Author | Name, E-Mail, Timestamp</text><g transform="matrix(13.5463,0,0,13.5463,266.321,244.46)"></g><text x="22.61px" y="244.46px" style="font-family:'Poppins-Regular', 'Poppins';font-size:13.546px;">Comitter | Name, E-Mail, Timestamp</text></g></g></svg>